HIERARCHY
ROOT Hips
{
	OFFSET -339.306915 540.749023 89.171944
	CHANNELS 6 Xposition Yposition Zposition Zrotation Yrotation Xrotation
	JOINT Spine
	{
		OFFSET 0.000000 2.080078 8.814247
		CHANNELS 6 Xposition Yposition Zposition Zrotation Yrotation Xrotation
		JOINT Spine1
		{
			OFFSET 0.000000 0.000000 8.844139
			CHANNELS 6 Xposition Yposition Zposition Zrotation Yrotation Xrotation
			JOINT Spine2
			{
				OFFSET 0.000000 0.000000 11.682266
				CHANNELS 6 Xposition Yposition Zposition Zrotation Yrotation Xrotation
				JOINT Spine3
				{
					OFFSET 0.000000 0.000000 11.746696
					CHANNELS 6 Xposition Yposition Zposition Zrotation Yrotation Xrotation
					JOINT Neck
					{
						OFFSET 0.000000 0.000000 17.658264
						CHANNELS 6 Xposition Yposition Zposition Zrotation Yrotation Xrotation
						JOINT Neck1
						{
							OFFSET 0.000000 0.000000 5.101517
							CHANNELS 6 Xposition Yposition Zposition Zrotation Yrotation Xrotation
							JOINT Head
							{
								OFFSET 0.000000 0.000000 5.101517
								CHANNELS 6 Xposition Yposition Zposition Zrotation Yrotation Xrotation
								JOINT HeadEnd
								{
									OFFSET 0.000000 0.000000 11.655090
									CHANNELS 6 Xposition Yposition Zposition Zrotation Yrotation Xrotation
									End Site
									{
										OFFSET 0.000000 0.000000 0.100006
									}
								}
							}
						}
					}
					JOINT RightShoulder
					{
						OFFSET -2.625397 0.000000 11.175217
						CHANNELS 6 Xposition Yposition Zposition Zrotation Yrotation Xrotation
						JOINT RightArm
						{
							OFFSET 0.000000 0.000000 10.434708
							CHANNELS 6 Xposition Yposition Zposition Zrotation Yrotation Xrotation
							JOINT RightForeArm
							{
								OFFSET 0.000000 0.000000 29.628418
								CHANNELS 6 Xposition Yposition Zposition Zrotation Yrotation Xrotation
								JOINT RightHand
								{
									OFFSET 0.000000 0.000000 22.857605
									CHANNELS 6 Xposition Yposition Zposition Zrotation Yrotation Xrotation
									JOINT RightHandThumb1
									{
										OFFSET -2.867310 -2.944275 3.959564
										CHANNELS 6 Xposition Yposition Zposition Zrotation Yrotation Xrotation
										JOINT RightHandThumb2
										{
											OFFSET 0.000000 0.000000 3.350403
											CHANNELS 6 Xposition Yposition Zposition Zrotation Yrotation Xrotation
											JOINT RightHandThumb3
											{
												OFFSET 0.000000 0.000000 3.756516
												CHANNELS 6 Xposition Yposition Zposition Zrotation Yrotation Xrotation
												JOINT RightHandThumb4
												{
													OFFSET 0.000000 0.000000 3.147339
													CHANNELS 6 Xposition Yposition Zposition Zrotation Yrotation Xrotation
													End Site
													{
														OFFSET 0.000000 0.000000 0.100006
													}
												}
											}
										}
									}
									JOINT RightHandIndex1
									{
										OFFSET -0.086761 -2.345276 10.030899
										CHANNELS 6 Xposition Yposition Zposition Zrotation Yrotation Xrotation
										JOINT RightHandIndex2
										{
											OFFSET 0.000000 0.000000 4.061096
											CHANNELS 6 Xposition Yposition Zposition Zrotation Yrotation Xrotation
											JOINT RightHandIndex3
											{
												OFFSET 0.000000 0.000000 3.248871
												CHANNELS 6 Xposition Yposition Zposition Zrotation Yrotation Xrotation
												JOINT RightHandIndex4
												{
													OFFSET 0.000000 0.000000 2.639709
													CHANNELS 6 Xposition Yposition Zposition Zrotation Yrotation Xrotation
													End Site
													{
														OFFSET 0.000000 0.000000 0.100006
													}
												}
											}
										}
									}
									JOINT RightHandMiddle1
									{
										OFFSET 0.104095 -0.006775 9.502945
										CHANNELS 6 Xposition Yposition Zposition Zrotation Yrotation Xrotation
										JOINT RightHandMiddle2
										{
											OFFSET 0.000000 0.000000 4.568726
											CHANNELS 6 Xposition Yposition Zposition Zrotation Yrotation Xrotation
											JOINT RightHandMiddle3
											{
												OFFSET 0.000000 0.000000 3.654984
												CHANNELS 6 Xposition Yposition Zposition Zrotation Yrotation Xrotation
												JOINT RightHandMiddle4
												{
													OFFSET 0.000000 0.000000 2.741241
													CHANNELS 6 Xposition Yposition Zposition Zrotation Yrotation Xrotation
													End Site
													{
														OFFSET 0.000000 0.000000 0.100006
													}
												}
											}
										}
									}
									JOINT RightHandRing1
									{
										OFFSET 0.086761 2.267456 8.921707
										CHANNELS 6 Xposition Yposition Zposition Zrotation Yrotation Xrotation
										JOINT RightHandRing2
										{
											OFFSET 0.000000 0.000000 4.061096
											CHANNELS 6 Xposition Yposition Zposition Zrotation Yrotation Xrotation
											JOINT RightHandRing3
											{
												OFFSET 0.000000 0.000000 3.654984
												CHANNELS 6 Xposition Yposition Zposition Zrotation Yrotation Xrotation
												JOINT RightHandRing4
												{
													OFFSET 0.000000 0.000000 2.741241
													CHANNELS 6 Xposition Yposition Zposition Zrotation Yrotation Xrotation
													End Site
													{
														OFFSET 0.000000 0.000000 0.100006
													}
												}
											}
										}
									}
									JOINT RightHandPinky1
									{
										OFFSET -0.173492 4.467224 7.976990
										CHANNELS 6 Xposition Yposition Zposition Zrotation Yrotation Xrotation
										JOINT RightHandPinky2
										{
											OFFSET 0.000000 0.000000 3.350403
											CHANNELS 6 Xposition Yposition Zposition Zrotation Yrotation Xrotation
											JOINT RightHandPinky3
											{
												OFFSET 0.000000 0.000000 2.842758
												CHANNELS 6 Xposition Yposition Zposition Zrotation Yrotation Xrotation
												JOINT RightHandPinky4
												{
													OFFSET 0.000000 0.000000 2.639709
													CHANNELS 6 Xposition Yposition Zposition Zrotation Yrotation Xrotation
													End Site
													{
														OFFSET 0.000000 0.000000 0.100006
													}
												}
											}
										}
									}
									JOINT RightForeArmEnd
									{
										OFFSET 0.000000 0.000000 0.000000
										CHANNELS 6 Xposition Yposition Zposition Zrotation Yrotation Xrotation
										End Site
										{
											OFFSET 0.000000 0.000000 0.100006
										}
									}
								}
								JOINT RightArmEnd
								{
									OFFSET 0.000000 0.000000 0.000000
									CHANNELS 6 Xposition Yposition Zposition Zrotation Yrotation Xrotation
									End Site
									{
										OFFSET 0.000000 0.000000 0.100006
									}
								}
							}
						}
					}
					JOINT LeftShoulder
					{
						OFFSET 2.625397 0.000000 11.175217
						CHANNELS 6 Xposition Yposition Zposition Zrotation Yrotation Xrotation
						JOINT LeftArm
						{
							OFFSET 0.000000 0.000000 10.813629
							CHANNELS 6 Xposition Yposition Zposition Zrotation Yrotation Xrotation
							JOINT LeftForeArm
							{
								OFFSET 0.000000 0.000000 28.724777
								CHANNELS 6 Xposition Yposition Zposition Zrotation Yrotation Xrotation
								JOINT LeftHand
								{
									OFFSET 0.644379 0.328857 25.716171
									CHANNELS 6 Xposition Yposition Zposition Zrotation Yrotation Xrotation
									JOINT LeftHandThumb1
									{
										OFFSET 2.867310 -2.944275 3.959564
										CHANNELS 6 Xposition Yposition Zposition Zrotation Yrotation Xrotation
										JOINT LeftHandThumb2
										{
											OFFSET 0.000000 0.000000 3.350403
											CHANNELS 6 Xposition Yposition Zposition Zrotation Yrotation Xrotation
											JOINT LeftHandThumb3
											{
												OFFSET 0.000000 0.000000 3.756516
												CHANNELS 6 Xposition Yposition Zposition Zrotation Yrotation Xrotation
												JOINT LeftHandThumb4
												{
													OFFSET 0.000000 0.000000 3.100006
													CHANNELS 6 Xposition Yposition Zposition Zrotation Yrotation Xrotation
													End Site
													{
														OFFSET 0.000000 0.000000 0.100006
													}
												}
											}
										}
									}
									JOINT LeftHandIndex1
									{
										OFFSET 0.086761 -2.345276 10.030899
										CHANNELS 6 Xposition Yposition Zposition Zrotation Yrotation Xrotation
										JOINT LeftHandIndex2
										{
											OFFSET 0.000000 0.000000 4.061096
											CHANNELS 6 Xposition Yposition Zposition Zrotation Yrotation Xrotation
											JOINT LeftHandIndex3
											{
												OFFSET 0.000000 0.000000 3.248871
												CHANNELS 6 Xposition Yposition Zposition Zrotation Yrotation Xrotation
												JOINT LeftHandIndex4
												{
													OFFSET 0.000000 0.000000 2.639709
													CHANNELS 6 Xposition Yposition Zposition Zrotation Yrotation Xrotation
													End Site
													{
														OFFSET 0.000000 0.000000 0.100006
													}
												}
											}
										}
									}
									JOINT LeftHandMiddle1
									{
										OFFSET -0.104095 -0.006775 9.502945
										CHANNELS 6 Xposition Yposition Zposition Zrotation Yrotation Xrotation
										JOINT LeftHandMiddle2
										{
											OFFSET 0.000000 0.000000 4.568726
											CHANNELS 6 Xposition Yposition Zposition Zrotation Yrotation Xrotation
											JOINT LeftHandMiddle3
											{
												OFFSET 0.000000 0.000000 3.654984
												CHANNELS 6 Xposition Yposition Zposition Zrotation Yrotation Xrotation
												JOINT LeftHandMiddle4
												{
													OFFSET 0.000000 0.000000 2.741241
													CHANNELS 6 Xposition Yposition Zposition Zrotation Yrotation Xrotation
													End Site
													{
														OFFSET 0.000000 0.000000 0.100006
													}
												}
											}
										}
									}
									JOINT LeftHandRing1
									{
										OFFSET -0.086761 2.267456 8.921707
										CHANNELS 6 Xposition Yposition Zposition Zrotation Yrotation Xrotation
										JOINT LeftHandRing2
										{
											OFFSET 0.000000 0.000000 4.061096
											CHANNELS 6 Xposition Yposition Zposition Zrotation Yrotation Xrotation
											JOINT LeftHandRing3
											{
												OFFSET 0.000000 0.000000 3.654984
												CHANNELS 6 Xposition Yposition Zposition Zrotation Yrotation Xrotation
												JOINT LeftHandRing4
												{
													OFFSET 0.000000 0.000000 2.741241
													CHANNELS 6 Xposition Yposition Zposition Zrotation Yrotation Xrotation
													End Site
													{
														OFFSET 0.000000 0.000000 0.100006
													}
												}
											}
										}
									}
									JOINT LeftHandPinky1
									{
										OFFSET 0.173492 4.467224 7.976990
										CHANNELS 6 Xposition Yposition Zposition Zrotation Yrotation Xrotation
										JOINT LeftHandPinky2
										{
											OFFSET 0.000000 0.000000 3.350403
											CHANNELS 6 Xposition Yposition Zposition Zrotation Yrotation Xrotation
											JOINT LeftHandPinky3
											{
												OFFSET 0.000000 0.000000 2.842758
												CHANNELS 6 Xposition Yposition Zposition Zrotation Yrotation Xrotation
												JOINT LeftHandPinky4
												{
													OFFSET 0.000000 0.000000 2.639709
													CHANNELS 6 Xposition Yposition Zposition Zrotation Yrotation Xrotation
													End Site
													{
														OFFSET 0.000000 0.000000 0.100006
													}
												}
											}
										}
									}
									JOINT LeftForeArmEnd
									{
										OFFSET 0.000000 0.000000 0.000000
										CHANNELS 6 Xposition Yposition Zposition Zrotation Yrotation Xrotation
										End Site
										{
											OFFSET 0.000000 0.000000 0.100006
										}
									}
								}
								JOINT LeftArmEnd
								{
									OFFSET 0.000000 0.000000 0.000000
									CHANNELS 6 Xposition Yposition Zposition Zrotation Yrotation Xrotation
									End Site
									{
										OFFSET 0.000000 0.000000 0.100006
									}
								}
							}
						}
					}
				}
			}
		}
	}
	JOINT RightUpLeg
	{
		OFFSET -11.289948 0.000000 0.000000
		CHANNELS 6 Xposition Yposition Zposition Zrotation Yrotation Xrotation
		JOINT RightLeg
		{
			OFFSET 0.000000 0.000000 -38.200329
			CHANNELS 6 Xposition Yposition Zposition Zrotation Yrotation Xrotation
			JOINT RightFoot
			{
				OFFSET 0.000000 0.000000 -39.900856
				CHANNELS 6 Xposition Yposition Zposition Zrotation Yrotation Xrotation
				JOINT RightToeBase
				{
					OFFSET 0.000000 -15.261658 0.000001
					CHANNELS 6 Xposition Yposition Zposition Zrotation Yrotation Xrotation
					JOINT RightToeBaseEnd
					{
						OFFSET 0.000000 -7.370728 0.000001
						CHANNELS 6 Xposition Yposition Zposition Zrotation Yrotation Xrotation
						End Site
						{
							OFFSET 0.000000 0.000000 0.100000
						}
					}
				}
				JOINT RightLegEnd
				{
					OFFSET 0.000000 0.000000 0.000000
					CHANNELS 6 Xposition Yposition Zposition Zrotation Yrotation Xrotation
					End Site
					{
						OFFSET 0.000000 0.000000 0.100000
					}
				}
			}
			JOINT RightUpLegEnd
			{
				OFFSET 0.000000 0.000000 0.000000
				CHANNELS 6 Xposition Yposition Zposition Zrotation Yrotation Xrotation
				End Site
				{
					OFFSET 0.000000 0.000000 0.099998
				}
			}
		}
	}
	JOINT LeftUpLeg
	{
		OFFSET 11.315674 0.000000 0.000000
		CHANNELS 6 Xposition Yposition Zposition Zrotation Yrotation Xrotation
		JOINT LeftLeg
		{
			OFFSET 0.000000 0.000000 -38.200329
			CHANNELS 6 Xposition Yposition Zposition Zrotation Yrotation Xrotation
			JOINT LeftFoot
			{
				OFFSET 0.000000 0.000000 -39.900856
				CHANNELS 6 Xposition Yposition Zposition Zrotation Yrotation Xrotation
				JOINT LeftToeBase
				{
					OFFSET 0.000000 -15.261658 0.000001
					CHANNELS 6 Xposition Yposition Zposition Zrotation Yrotation Xrotation
					JOINT LeftToeBaseEnd
					{
						OFFSET 0.000000 -7.539978 0.000001
						CHANNELS 6 Xposition Yposition Zposition Zrotation Yrotation Xrotation
						End Site
						{
							OFFSET 0.000000 0.000000 0.100000
						}
					}
				}
				JOINT LeftLegEnd
				{
					OFFSET 0.000000 0.000000 0.000000
					CHANNELS 6 Xposition Yposition Zposition Zrotation Yrotation Xrotation
					End Site
					{
						OFFSET 0.000000 0.000000 0.100000
					}
				}
			}
			JOINT LeftUpLegEnd
			{
				OFFSET 0.000000 0.000000 0.000000
				CHANNELS 6 Xposition Yposition Zposition Zrotation Yrotation Xrotation
				End Site
				{
					OFFSET 0.000000 0.000000 0.099998
				}
			}
		}
	}
}
MOTION
Frames: 2
Frame Time: 0.016667
-40.303802 -32.089355 86.421738 7.775434 -4.359436 -8.643872 0.000009 2.080067 8.814247 0.125631 0.179927 8.596976 -0.000000 0.000018 8.844143 -0.048201 -0.814956 4.113632 -0.000014 0.000000 11.682280 4.289118 0.724147 6.400957 -0.000038 -0.000011 11.746700 1.417671 1.640183 5.176360 -0.000004 -0.000001 17.658276 2.071485 7.716059 -7.851267 -0.000029 -0.000008 5.101552 -1.620485 1.096859 -9.748533 0.000005 0.000028 5.101554 1.058319 -0.919326 -15.526936 0.000004 0.000001 11.655093 0.000000 0.000001 -0.000003 -2.625404 -0.000004 11.175224 11.006260 -83.328984 0.475347 0.000000 -0.000031 10.434715 -44.087669 -54.813351 54.360444 0.000011 -0.000004 29.628448 2.637970 0.260269 24.697587 -0.000027 -0.000019 22.857590 -7.494748 6.383397 -14.781708 -2.867317 -2.944290 3.959557 33.000896 -12.049492 60.205829 0.000002 0.000035 3.350410 -1.497305 1.421708 -2.967845 0.000026 -0.000015 3.756518 -1.031980 0.995568 -2.056969 -0.000009 -0.000009 3.147344 0.000001 -0.000001 0.000003 -0.086763 -2.345276 10.030960 14.372533 25.703385 26.789515 -0.000009 0.000003 4.061100 -0.530549 0.000007 -0.000048 0.000004 -0.000027 3.248883 -0.028796 -0.000008 0.000435 0.000011 -0.000036 2.639711 -0.000003 -0.000001 -0.000001 0.104102 -0.006790 9.502991 9.611916 28.700506 18.105846 0.000035 0.000026 4.568728 -0.530819 -0.000022 -0.000032 -0.000006 0.000022 3.655005 -0.026583 -0.000004 0.000456 -0.000019 0.000003 2.741281 0.000001 -0.000002 -0.000001 0.086763 2.267459 8.921719 0.702065 30.722181 5.792202 0.000001 0.000040 4.061103 1.014553 -0.000001 -0.000682 -0.000015 0.000046 3.654977 0.011281 -0.000010 -0.001606 -0.000010 0.000004 2.741233 0.000001 0.000002 0.000003 -0.173496 4.467231 7.976990 -9.226432 28.026372 -6.410808 -0.000036 0.000030 3.350415 2.000449 -0.000312 -0.000015 0.000021 -0.000008 2.842759 0.031640 0.000006 -0.002210 0.000000 0.000002 2.639717 0.000000 -0.000001 0.000001 0.000013 0.000010 0.000025 -0.000002 -0.000000 -0.000000 -0.000012 -0.000014 0.000018 0.000002 -0.000001 -0.000000 2.625393 0.000009 11.175228 -11.599349 85.567046 -0.121510 0.000023 -0.000008 10.813663 62.713561 61.451000 49.981036 -0.000019 -0.000031 28.724754 -23.450095 0.960803 36.385900 0.644388 0.328842 25.716148 -1.603110 -1.098183 -10.950030 2.867310 -2.944275 3.959541 -32.468278 13.433367 57.719859 0.000010 0.000029 3.350422 4.374737 -3.776080 -8.408350 -0.000003 -0.000019 3.756514 2.978530 -2.691109 -5.806381 0.000044 0.000002 3.100019 -0.000001 0.000000 -0.000002 0.086761 -2.345266 10.030876 4.991398 -23.289731 11.815869 -0.000002 0.000014 4.061110 -0.509631 -0.000027 0.000072 -0.000007 -0.000021 3.248896 -0.009101 -0.000005 0.000011 0.000004 -0.000011 2.639724 0.000001 -0.000001 -0.000001 -0.104078 -0.006765 9.502945 -0.268430 -22.100667 8.386915 0.000015 0.000010 4.568741 -0.511236 0.137192 -0.001216 -0.000009 0.000019 3.654979 -0.031752 -0.076017 0.000082 -0.000009 -0.000005 2.741264 0.000001 -0.000001 -0.000000 -0.086777 2.267434 8.921715 -8.646843 -20.522960 4.883686 0.000013 0.000024 4.061110 1.041429 -0.000003 -0.000017 -0.000013 0.000019 3.655011 0.032349 0.000009 -0.001981 -0.000000 0.000002 2.741262 -0.000001 0.000000 0.000000 0.173500 4.467247 7.976968 -17.257246 -19.534905 0.108914 -0.000012 0.000014 3.350412 2.000332 -0.015853 -0.000516 -0.000005 -0.000004 2.842760 0.032549 0.017054 0.014846 0.000006 -0.000001 2.639735 0.000000 0.000001 0.000000 -0.000003 -0.000002 0.000010 0.000000 -0.000001 -0.000000 -0.000014 -0.000006 0.000007 0.000000 0.000000 -0.000001 -11.289949 0.000036 0.000009 8.447591 0.995407 -4.869500 -0.000011 0.000028 -38.200344 0.295759 -0.218315 36.431881 -0.000005 -0.000006 -39.900856 -15.968216 0.696417 5.963951 0.000000 -15.261645 -0.000005 -0.053131 0.957760 -20.425565 -0.000001 -7.370664 -0.000000 -0.000000 0.000001 0.000000 -0.000002 0.000061 -0.000002 -0.000000 -0.000000 0.000003 0.000007 0.000019 -0.000004 -0.000003 -0.000000 0.000002 11.315675 0.000025 0.000007 9.107827 0.161203 -3.339107 -0.000016 0.000030 -38.200310 0.885168 -0.437459 26.296975 -0.000007 -0.000002 -39.900848 4.251446 3.053234 13.446208 0.000001 -15.261638 0.000018 -1.542708 -0.356641 -21.260299 0.000001 -7.539993 0.000000 0.000003 0.000000 -0.000000 0.000000 0.000003 -0.000000 -0.000000 -0.000001 0.000002 -0.000025 0.000061 0.000001 -0.000000 -0.000001 0.000001 
-40.188202 -32.045898 86.257217 6.348301 -4.463614 -8.783809 -0.000011 2.080070 8.814247 0.130479 0.368910 8.780646 -0.000017 -0.000004 8.844145 -0.003814 -0.681005 4.190089 0.000015 0.000007 11.682276 3.903897 0.730228 6.412336 -0.000022 -0.000019 11.746711 1.241596 1.590227 5.179447 0.000011 0.000025 17.658272 2.592712 8.010394 -7.926903 -0.000004 0.000021 5.101556 -1.067092 1.014260 -9.844685 -0.000009 0.000008 5.101513 1.035711 -0.897288 -15.542183 0.000002 -0.000004 11.655068 0.000001 0.000001 -0.000001 -2.625404 0.000013 11.175223 10.984854 -83.285660 0.438894 -0.000019 -0.000011 10.434715 -38.884202 -56.565707 48.848420 -0.000012 -0.000006 29.628397 3.352844 0.211746 23.693974 -0.000013 -0.000011 22.857571 -6.189205 6.997408 -14.987870 -2.867310 -2.944244 3.959602 33.134286 -11.752060 60.762599 0.000010 -0.000015 3.350399 -0.889490 0.862369 -1.775584 -0.000006 -0.000026 3.756528 -0.614871 0.601659 -1.232230 -0.000014 -0.000056 3.147363 -0.000001 -0.000000 -0.000000 -0.086765 -2.345261 10.030869 15.215168 28.339899 27.511307 0.000000 0.000035 4.061098 -0.538032 -0.044297 0.000357 0.000034 -0.000058 3.248867 -0.035849 0.024552 0.000504 -0.000005 -0.000011 2.639705 0.000001 -0.000000 -0.000000 0.104103 -0.006771 9.502991 10.302154 31.165026 18.636525 -0.000010 -0.000005 4.568737 -0.538024 -0.000400 -0.000032 -0.000010 -0.000013 3.654993 -0.032792 0.000000 0.000572 0.000027 -0.000009 2.741238 0.000000 -0.000001 0.000000 0.086775 2.267478 8.921730 1.110175 32.915590 5.887129 -0.000009 0.000030 4.061103 1.018150 0.000000 -0.000943 -0.000015 -0.000013 3.654985 0.014092 -0.000010 -0.002063 0.000039 0.000004 2.741243 0.000000 0.000000 -0.000000 -0.173489 4.467234 7.976997 -9.084440 29.829410 -6.606162 0.000002 0.000015 3.350442 2.000633 -0.131482 -0.004600 0.000012 -0.000030 2.842783 0.039341 0.070901 -0.002720 0.000010 0.000003 2.639704 -0.000001 -0.000002 -0.000001 -0.000010 -0.000003 0.000013 0.000001 0.000001 -0.000001 -0.000016 -0.000008 -0.000007 0.000002 0.000002 0.000001 2.625387 -0.000012 11.175237 -11.789995 85.607856 -0.148344 0.000023 0.000023 10.813637 60.567611 60.210733 48.762937 -0.000046 -0.000046 28.724804 -23.611701 0.491965 37.640418 0.644331 0.328836 25.716158 1.280712 -1.640656 -11.061747 2.867310 -2.944290 3.959518 -32.577059 13.119568 58.269423 -0.000016 -0.000008 3.350430 3.715641 -3.276719 -7.188191 0.000003 0.000036 3.756516 2.536242 -2.325397 -4.967879 -0.000009 0.000003 3.100023 -0.000001 -0.000001 -0.000002 0.086746 -2.345255 10.030876 4.682811 -25.493959 11.847518 0.000002 0.000004 4.061096 -0.511521 -0.000014 0.000085 0.000012 -0.000004 3.248904 -0.010885 -0.000005 0.000013 0.000006 0.000001 2.639729 -0.000000 0.000000 0.000000 -0.104078 -0.006768 9.502937 -0.634116 -24.129706 8.516870 0.000004 0.000022 4.568747 -0.513360 0.000078 0.000012 -0.000011 0.000003 3.654984 -0.037193 -0.000005 0.000047 -0.000005 -0.000001 2.741267 0.000000 0.000001 -0.000001 -0.086761 2.267438 8.921688 -9.103869 -22.436951 5.246191 0.000005 0.000010 4.061083 1.049757 0.039632 0.000709 0.000012 0.000016 3.654996 0.038848 -0.020869 -0.002571 0.000010 -0.000001 2.741245 -0.000000 -0.000001 -0.000000 0.173477 4.467222 7.976979 -17.720410 -21.045833 0.773125 0.000014 0.000012 3.350396 2.000597 0.000016 0.000048 -0.000007 -0.000027 2.842757 0.040462 -0.000013 0.019070 0.000006 -0.000001 2.639731 0.000000 0.000001 0.000000 0.000001 0.000005 0.000002 -0.000001 0.000000 -0.000000 -0.000011 0.000000 -0.000007 0.000000 0.000000 -0.000001 -11.289940 -0.000016 0.000010 8.805418 1.235568 -5.328815 0.000001 0.000004 -38.200321 0.261512 -0.199455 37.333903 -0.000005 -0.000008 -39.900852 -14.845433 0.821108 5.612280 0.000009 -15.261653 -0.000004 -0.036211 0.930481 -20.398959 0.000001 -7.370665 -0.000001 -0.000000 0.000001 0.000001 0.000001 0.000063 -0.000001 -0.000000 -0.000000 0.000001 0.000015 0.000017 -0.000004 -0.000002 -0.000000 -0.000000 11.315636 0.000045 0.000003 10.571428 0.036286 -3.807594 -0.000020 0.000101 -38.200272 0.915116 -0.486156 27.977565 -0.000005 0.000011 -39.900860 4.377262 3.713629 12.754166 -0.000008 -15.261650 -0.000018 -1.623033 -0.352353 -21.435203 0.000008 -7.539990 0.000001 0.000002 -0.000000 0.000000 0.000000 -0.000005 -0.000002 0.000001 -0.000000 0.000002 -0.000011 0.000011 -0.000011 -0.000002 0.000000 0.000000 
